<mxfile host="65bd71144e">
    <diagram id="YgpGImbCrqYieAvxBCPU" name="Page-1">
        <mxGraphModel dx="756" dy="1710" grid="1" gridSize="10" guides="1" tooltips="1" connect="1" arrows="1" fold="1" page="1" pageScale="1" pageWidth="850" pageHeight="1100" math="0" shadow="0">
            <root>
                <mxCell id="0"/>
                <mxCell id="1" parent="0"/>
                <mxCell id="4" value="" style="edgeStyle=none;html=1;" edge="1" parent="1" source="2">
                    <mxGeometry relative="1" as="geometry">
                        <mxPoint x="240" y="140" as="targetPoint"/>
                    </mxGeometry>
                </mxCell>
                <mxCell id="2" value="start" style="strokeWidth=2;html=1;shape=mxgraph.flowchart.terminator;whiteSpace=wrap;fillColor=#f8cecc;strokeColor=#b85450;" vertex="1" parent="1">
                    <mxGeometry x="190" width="100" height="60" as="geometry"/>
                </mxCell>
                <mxCell id="7" value="" style="edgeStyle=none;html=1;" edge="1" parent="1" source="5">
                    <mxGeometry relative="1" as="geometry">
                        <mxPoint x="240" y="210" as="targetPoint"/>
                    </mxGeometry>
                </mxCell>
                <mxCell id="5" value="&lt;div style=&quot;color: rgb(171, 178, 191); font-family: Consolas, &amp;quot;Courier New&amp;quot;, monospace; font-size: 14px; line-height: 19px; white-space: pre;&quot;&gt;&lt;span&gt;&lt;span style=&quot;color: rgb(224, 108, 117);&quot;&gt;fruits&lt;/span&gt;&lt;span style=&quot;color: rgb(171, 178, 191);&quot;&gt; &lt;/span&gt;&lt;span style=&quot;color: rgb(86, 182, 194);&quot;&gt;=&lt;/span&gt;&lt;span style=&quot;color: rgb(171, 178, 191);&quot;&gt; [&lt;/span&gt;&lt;span style=&quot;color: rgb(152, 195, 121);&quot;&gt;&quot;apple&quot;&lt;/span&gt;&lt;span style=&quot;color: rgb(171, 178, 191);&quot;&gt;, &lt;/span&gt;&lt;span style=&quot;color: rgb(152, 195, 121);&quot;&gt;&quot;banana&quot;&lt;/span&gt;&lt;span style=&quot;color: rgb(171, 178, 191);&quot;&gt; , &lt;/span&gt;&lt;span style=&quot;color: rgb(152, 195, 121);&quot;&gt;&quot;cherry&lt;/span&gt;&lt;/span&gt;&lt;/div&gt;" style="rounded=1;whiteSpace=wrap;html=1;absoluteArcSize=1;arcSize=14;strokeWidth=2;fillColor=#dae8fc;strokeColor=#6c8ebf;" vertex="1" parent="1">
                    <mxGeometry x="80" y="140" width="320" height="40" as="geometry"/>
                </mxCell>
                <mxCell id="8" style="edgeStyle=none;html=1;entryX=0;entryY=0.5;entryDx=0;entryDy=0;entryPerimeter=0;" edge="1" parent="1" source="6" target="9">
                    <mxGeometry relative="1" as="geometry">
                        <mxPoint x="430" y="330" as="targetPoint"/>
                    </mxGeometry>
                </mxCell>
                <mxCell id="13" value="True" style="edgeLabel;html=1;align=center;verticalAlign=middle;resizable=0;points=[];" vertex="1" connectable="0" parent="8">
                    <mxGeometry x="-0.2513" y="3" relative="1" as="geometry">
                        <mxPoint as="offset"/>
                    </mxGeometry>
                </mxCell>
                <mxCell id="15" value="" style="edgeStyle=none;html=1;" edge="1" parent="1" source="6" target="14">
                    <mxGeometry relative="1" as="geometry"/>
                </mxCell>
                <mxCell id="16" value="" style="edgeStyle=none;html=1;" edge="1" parent="1" source="6" target="14">
                    <mxGeometry relative="1" as="geometry"/>
                </mxCell>
                <mxCell id="17" value="fault" style="edgeLabel;html=1;align=center;verticalAlign=middle;resizable=0;points=[];" vertex="1" connectable="0" parent="16">
                    <mxGeometry x="-0.3" y="-2" relative="1" as="geometry">
                        <mxPoint as="offset"/>
                    </mxGeometry>
                </mxCell>
                <mxCell id="6" value="&lt;div style=&quot;color: rgb(171, 178, 191); font-family: Consolas, &amp;quot;Courier New&amp;quot;, monospace; font-size: 14px; line-height: 19px; white-space: pre;&quot;&gt;&lt;span&gt;&lt;span style=&quot;color: rgb(198, 120, 221);&quot;&gt;for&lt;/span&gt;&lt;span style=&quot;color: rgb(171, 178, 191);&quot;&gt; &lt;/span&gt;&lt;span style=&quot;color: rgb(224, 108, 117);&quot;&gt;fruit&lt;/span&gt;&lt;span style=&quot;color: rgb(171, 178, 191);&quot;&gt; &lt;/span&gt;&lt;span style=&quot;color: rgb(198, 120, 221);&quot;&gt;in&lt;/span&gt;&lt;span style=&quot;color: rgb(171, 178, 191);&quot;&gt; &lt;/span&gt;&lt;span style=&quot;color: rgb(224, 108, 117);&quot;&gt;fruits&lt;/span&gt;&lt;span style=&quot;color: rgb(171, 178, 191);&quot;&gt;:&lt;/span&gt;&lt;/span&gt;&lt;/div&gt;" style="rhombus;whiteSpace=wrap;html=1;rounded=1;arcSize=14;strokeWidth=2;fillColor=#d5e8d4;strokeColor=#82b366;" vertex="1" parent="1">
                    <mxGeometry x="150" y="290" width="180" height="180" as="geometry"/>
                </mxCell>
                <mxCell id="10" style="edgeStyle=none;html=1;entryX=1;entryY=0.5;entryDx=0;entryDy=0;entryPerimeter=0;" edge="1" parent="1" source="9" target="11">
                    <mxGeometry relative="1" as="geometry">
                        <mxPoint x="360" y="210" as="targetPoint"/>
                        <Array as="points">
                            <mxPoint x="510" y="220"/>
                        </Array>
                    </mxGeometry>
                </mxCell>
                <mxCell id="9" value="display: fruit" style="strokeWidth=2;html=1;shape=mxgraph.flowchart.display;whiteSpace=wrap;fillColor=#e1d5e7;strokeColor=#9673a6;" vertex="1" parent="1">
                    <mxGeometry x="460" y="350" width="100" height="60" as="geometry"/>
                </mxCell>
                <mxCell id="12" value="" style="edgeStyle=none;html=1;" edge="1" parent="1" source="11" target="6">
                    <mxGeometry relative="1" as="geometry"/>
                </mxCell>
                <mxCell id="11" value="" style="verticalLabelPosition=bottom;verticalAlign=top;html=1;shape=mxgraph.flowchart.on-page_reference;fillColor=#ffe6cc;strokeColor=#d79b00;" vertex="1" parent="1">
                    <mxGeometry x="230" y="210" width="20" height="20" as="geometry"/>
                </mxCell>
                <mxCell id="14" value="stop" style="strokeWidth=2;html=1;shape=mxgraph.flowchart.terminator;whiteSpace=wrap;fillColor=#f8cecc;strokeColor=#b85450;" vertex="1" parent="1">
                    <mxGeometry x="190" y="510" width="100" height="60" as="geometry"/>
                </mxCell>
            </root>
        </mxGraphModel>
    </diagram>
</mxfile>